<svg width="24" height="24" viewBox="0 0 24 24" fill="none" xmlns="http://www.w3.org/2000/svg">
<circle cx="12" cy="12" r="12" fill="#F8C748"/>
<g clip-path="url(#clip0_81_857)">
<path d="M8.69186 9.84044C8.83233 9.84044 8.96673 9.86051 9.09506 9.90064C9.57889 9.36004 10.1141 8.86773 10.6932 8.43064C10.6334 8.1814 10.6451 7.92038 10.7268 7.67744C10.0729 7.20879 9.36531 6.82009 8.61906 6.51964C7.9162 6.95537 7.3028 7.52102 6.81166 8.18634C7.17496 8.83034 7.60686 9.43024 8.09826 9.97624C8.27746 9.88944 8.47836 9.84044 8.69186 9.84044ZM7.32126 11.2103C7.32126 11.0178 7.36186 10.8344 7.43256 10.6692C6.99222 10.1848 6.5952 9.66272 6.24606 9.10894C5.79507 10.0062 5.56015 10.9964 5.56006 12.0006C5.55886 13.1602 5.87214 14.2985 6.46656 15.2941C6.66972 14.1555 7.05249 13.0563 7.60056 12.0377C7.41937 11.8 7.32125 11.5093 7.32126 11.2103ZM12.0253 6.74224C12.3872 6.74224 12.7148 6.88294 12.9605 7.11254C13.6834 6.80062 14.438 6.5678 15.211 6.41814C14.2348 5.85453 13.1272 5.55849 12.0001 5.55994C11.2264 5.55996 10.4591 5.69939 9.73486 5.97154C10.292 6.24758 10.8251 6.56952 11.3288 6.93404C11.5332 6.81224 11.7705 6.74224 12.0253 6.74224ZM14.0735 13.1955C14.1569 13.0181 14.2786 12.8613 14.4298 12.7363C14.0296 11.5052 13.3944 10.3635 12.5594 9.37424C12.3434 9.46533 12.1077 9.49959 11.8748 9.47373C11.6418 9.44787 11.4194 9.36277 11.2287 9.22654C10.7321 9.60351 10.2718 10.026 9.85386 10.4886C9.95913 10.6553 10.0267 10.843 10.0517 11.0385C10.0767 11.2341 10.0587 11.4327 9.99876 11.6205C11.2239 12.4402 12.6155 12.9781 14.0735 13.1955ZM15.8508 15.0456C15.9014 15.7649 15.8824 16.4874 15.7941 17.203C16.9003 16.3971 17.7209 15.2596 18.137 13.9557C17.6348 14.0774 17.1246 14.1628 16.6103 14.2112C16.5501 14.3962 16.4512 14.5663 16.3203 14.7101C16.1893 14.854 16.0293 14.9684 15.8508 15.0456ZM13.7529 14.1167C12.1952 13.8582 10.7121 13.265 9.40586 12.3779C9.10829 12.5612 8.75178 12.6233 8.40976 12.5515C7.78048 13.7421 7.39968 15.0481 7.29046 16.3903C7.90752 17.054 8.6577 17.58 9.49196 17.9338C10.5494 16.3068 12.0197 14.9896 13.7529 14.1167ZM16.3233 7.22664C15.3126 7.32553 14.3229 7.57761 13.3882 7.97424C13.4136 8.2283 13.3673 8.4844 13.2545 8.71344C14.1814 9.80114 14.8874 11.0592 15.3328 12.4171C15.5981 12.4218 15.8563 12.5034 16.0762 12.6518C16.2961 12.8003 16.4682 13.0093 16.5718 13.2536C17.192 13.1906 17.7954 13.0716 18.3764 12.9008C18.5248 11.8592 18.4152 10.7971 18.0573 9.80777C17.6993 8.81841 17.1038 7.93209 16.3233 7.22664ZM14.4424 14.8482C12.8282 15.6044 11.4452 16.7779 10.4363 18.2474C10.9477 18.3754 11.4729 18.44 12.0001 18.4399C12.9389 18.44 13.8663 18.2347 14.7175 17.8386C14.8505 17.189 14.9205 16.5177 14.9205 15.8303C14.92 15.5816 14.91 15.3354 14.8904 15.0918C14.7267 15.0403 14.5746 14.9576 14.4424 14.8482Z" fill="#323232"/>
</g>
<defs>
<clipPath id="clip0_81_857">
<rect width="14" height="14" fill="white" transform="translate(5 5)"/>
</clipPath>
</defs>
</svg>
