<svg width="24" height="24" viewBox="0 0 24 24" fill="none" xmlns="http://www.w3.org/2000/svg">
<circle cx="12" cy="12" r="12" fill="#F8C748"/>
<g clip-path="url(#clip0_81_846)">
<path d="M17.3957 8.20829C17.2796 8.20829 17.1684 8.1622 17.0863 8.08015C17.0043 7.9981 16.9582 7.88682 16.9582 7.77079C16.9582 7.65476 17.0043 7.54348 17.0863 7.46143C17.1684 7.37939 17.2796 7.33329 17.3957 7.33329C17.5117 7.33329 17.623 7.37939 17.705 7.46143C17.7871 7.54348 17.8332 7.65476 17.8332 7.77079C17.8332 7.88682 17.7871 7.9981 17.705 8.08015C17.623 8.1622 17.5117 8.20829 17.3957 8.20829ZM17.3957 8.20829V10.3958C17.3957 10.803 17.3957 11.0065 17.3455 11.1716C17.2899 11.3553 17.1898 11.5224 17.0542 11.6581C16.9186 11.7938 16.7515 11.894 16.5679 11.9498C16.4023 12 16.1987 12 15.7915 12M6.604 15.7916C6.72004 15.7916 6.83132 15.8377 6.91336 15.9198C6.99541 16.0018 7.0415 16.1131 7.0415 16.2291C7.0415 16.3452 6.99541 16.4564 6.91336 16.5385C6.83132 16.6205 6.72004 16.6666 6.604 16.6666C6.48797 16.6666 6.37669 16.6205 6.29464 16.5385C6.2126 16.4564 6.1665 16.3452 6.1665 16.2291C6.1665 16.1131 6.2126 16.0018 6.29464 15.9198C6.37669 15.8377 6.48797 15.7916 6.604 15.7916ZM6.604 15.7916V13.6041C6.604 13.197 6.604 12.9934 6.65417 12.8283C6.70979 12.6446 6.80985 12.4775 6.94549 12.3418C7.08112 12.2061 7.24814 12.1059 7.43175 12.0501C7.59742 12 7.801 12 8.20817 12M8.20817 6.60413C8.20817 6.72016 8.16208 6.83144 8.08003 6.91349C7.99798 6.99553 7.8867 7.04163 7.77067 7.04163C7.65464 7.04163 7.54336 6.99553 7.46131 6.91349C7.37926 6.83144 7.33317 6.72016 7.33317 6.60413C7.33317 6.48809 7.37926 6.37681 7.46131 6.29477C7.54336 6.21272 7.65464 6.16663 7.77067 6.16663C7.8867 6.16663 7.99798 6.21272 8.08003 6.29477C8.16208 6.37681 8.20817 6.48809 8.20817 6.60413ZM8.20817 6.60413H10.3957C10.8028 6.60413 11.0064 6.60413 11.1715 6.65429C11.3552 6.70991 11.5223 6.80997 11.658 6.94561C11.7937 7.08124 11.8939 7.24827 11.9497 7.43188C11.9998 7.59754 11.9998 7.80113 11.9998 8.20829M15.7915 17.3958C15.7915 17.2798 15.8376 17.1685 15.9196 17.0864C16.0017 17.0044 16.113 16.9583 16.229 16.9583C16.345 16.9583 16.4563 17.0044 16.5384 17.0864C16.6204 17.1685 16.6665 17.2798 16.6665 17.3958C16.6665 17.5118 16.6204 17.6231 16.5384 17.7052C16.4563 17.7872 16.345 17.8333 16.229 17.8333C16.113 17.8333 16.0017 17.7872 15.9196 17.7052C15.8376 17.6231 15.7915 17.5118 15.7915 17.3958ZM15.7915 17.3958H13.604C13.1968 17.3958 12.9933 17.3958 12.8282 17.3456C12.6445 17.29 12.4774 17.1899 12.3417 17.0543C12.2059 16.9187 12.1058 16.7517 12.05 16.568C11.9998 16.4024 11.9998 16.1988 11.9998 15.7916" stroke="#323232" stroke-width="1.5" stroke-linecap="round" stroke-linejoin="round"/>
<path d="M8.23682 11.9714C8.23682 10.184 8.23682 9.29035 8.79215 8.73502C9.34748 8.17969 10.2411 8.17969 12.0285 8.17969C13.8158 8.17969 14.7095 8.17969 15.2648 8.73502C15.8202 9.29035 15.8202 10.184 15.8202 11.9714C15.8202 13.7587 15.8202 14.6524 15.2648 15.2077C14.7095 15.763 13.8158 15.763 12.0285 15.763C10.2411 15.763 9.34748 15.763 8.79215 15.2077C8.23682 14.6524 8.23682 13.7587 8.23682 11.9714Z" stroke="#323232" stroke-width="1.5" stroke-linecap="round" stroke-linejoin="round"/>
<path d="M12.2907 13.4583L11.4391 10.821C11.4095 10.7378 11.3545 10.666 11.2818 10.6158C11.2092 10.5657 11.1225 10.5397 11.0342 10.5416C10.946 10.5398 10.8595 10.5659 10.787 10.616C10.7144 10.6662 10.6595 10.7379 10.63 10.821L9.77832 13.4583M13.7491 10.5416V13.4583M10.0916 12.5833H11.9769" stroke="#323232" stroke-width="1.5" stroke-linecap="round" stroke-linejoin="round"/>
</g>
<defs>
<clipPath id="clip0_81_846">
<rect width="14" height="14" fill="white" transform="translate(5 5)"/>
</clipPath>
</defs>
</svg>
