<svg width="24" height="24" viewBox="0 0 24 24" fill="none" xmlns="http://www.w3.org/2000/svg">
<circle cx="12" cy="12" r="12" fill="#F8C748"/>
<g clip-path="url(#clip0_81_838)">
<path d="M7.625 14.1875V13.75H6.75V14.1875C6.75 14.9997 7.07266 15.7787 7.64699 16.353C8.22132 16.9273 9.00027 17.25 9.8125 17.25H11.125V16.375H9.8125C9.23234 16.375 8.67594 16.1445 8.2657 15.7343C7.85547 15.3241 7.625 14.7677 7.625 14.1875ZM15.5 9.8125V10.25H16.375V9.8125C16.375 9.00028 16.0523 8.22132 15.478 7.64699C14.9037 7.07266 14.1247 6.75 13.3125 6.75H12V7.625H13.3125C13.5998 7.625 13.8842 7.68158 14.1496 7.79151C14.415 7.90145 14.6562 8.06258 14.8593 8.2657C15.0624 8.46883 15.2236 8.70998 15.3335 8.97538C15.4434 9.24078 15.5 9.52523 15.5 9.8125ZM9.8125 9.8125H7.1875C6.8394 9.8125 6.50556 9.95078 6.25942 10.1969C6.01328 10.4431 5.875 10.7769 5.875 11.125V12H6.75V11.125C6.75 11.009 6.79609 10.8977 6.87814 10.8156C6.96019 10.7336 7.07147 10.6875 7.1875 10.6875H9.8125C9.92853 10.6875 10.0398 10.7336 10.1219 10.8156C10.2039 10.8977 10.25 11.009 10.25 11.125V12H11.125V11.125C11.125 10.7769 10.9867 10.4431 10.7406 10.1969C10.4944 9.95078 10.1606 9.8125 9.8125 9.8125ZM8.5 9.375C8.84612 9.375 9.18446 9.27237 9.47225 9.08007C9.76003 8.88778 9.98434 8.61447 10.1168 8.2947C10.2492 7.97493 10.2839 7.62306 10.2164 7.28359C10.1489 6.94413 9.98218 6.63231 9.73744 6.38756C9.4927 6.14282 9.18087 5.97615 8.84141 5.90863C8.50194 5.8411 8.15007 5.87576 7.8303 6.00821C7.51053 6.14066 7.23722 6.36497 7.04493 6.65275C6.85264 6.94054 6.75 7.27888 6.75 7.625C6.75 8.08913 6.93437 8.53425 7.26256 8.86244C7.59075 9.19063 8.03587 9.375 8.5 9.375ZM8.5 6.75C8.67306 6.75 8.84223 6.80132 8.98612 6.89746C9.13002 6.99361 9.24217 7.13027 9.30839 7.29015C9.37462 7.45004 9.39195 7.62597 9.35819 7.7957C9.32443 7.96544 9.24109 8.12135 9.11872 8.24372C8.99635 8.36609 8.84044 8.44943 8.6707 8.48319C8.50097 8.51695 8.32504 8.49962 8.16515 8.4334C8.00527 8.36717 7.86861 8.25502 7.77246 8.11112C7.67632 7.96723 7.625 7.79806 7.625 7.625C7.625 7.39294 7.71719 7.17038 7.88128 7.00628C8.04538 6.84219 8.26794 6.75 8.5 6.75ZM16.8125 15.9375H14.1875C13.8394 15.9375 13.5056 16.0758 13.2594 16.3219C13.0133 16.5681 12.875 16.9019 12.875 17.25V18.125H13.75V17.25C13.75 17.134 13.7961 17.0227 13.8781 16.9406C13.9602 16.8586 14.0715 16.8125 14.1875 16.8125H16.8125C16.9285 16.8125 17.0398 16.8586 17.1219 16.9406C17.2039 17.0227 17.25 17.134 17.25 17.25V18.125H18.125V17.25C18.125 16.9019 17.9867 16.5681 17.7406 16.3219C17.4944 16.0758 17.1606 15.9375 16.8125 15.9375ZM13.75 13.75C13.75 14.0961 13.8526 14.4345 14.0449 14.7222C14.2372 15.01 14.5105 15.2343 14.8303 15.3668C15.1501 15.4992 15.5019 15.5339 15.8414 15.4664C16.1809 15.3989 16.4927 15.2322 16.7374 14.9874C16.9822 14.7427 17.1489 14.4309 17.2164 14.0914C17.2839 13.7519 17.2492 13.4001 17.1168 13.0803C16.9843 12.7605 16.76 12.4872 16.4722 12.2949C16.1845 12.1026 15.8461 12 15.5 12C15.0359 12 14.5908 12.1844 14.2626 12.5126C13.9344 12.8408 13.75 13.2859 13.75 13.75ZM16.375 13.75C16.375 13.9231 16.3237 14.0922 16.2275 14.2361C16.1314 14.38 15.9947 14.4922 15.8348 14.5584C15.675 14.6246 15.499 14.6419 15.3293 14.6082C15.1596 14.5744 15.0037 14.4911 14.8813 14.3687C14.7589 14.2463 14.6756 14.0904 14.6418 13.9207C14.6081 13.751 14.6254 13.575 14.6916 13.4152C14.7578 13.2553 14.87 13.1186 15.0139 13.0225C15.1578 12.9263 15.3269 12.875 15.5 12.875C15.7321 12.875 15.9546 12.9672 16.1187 13.1313C16.2828 13.2954 16.375 13.5179 16.375 13.75Z" fill="#323232"/>
</g>
<defs>
<clipPath id="clip0_81_838">
<rect width="14" height="14" fill="white" transform="translate(5 5)"/>
</clipPath>
</defs>
</svg>
