<svg width="24" height="24" viewBox="0 0 24 24" fill="none" xmlns="http://www.w3.org/2000/svg">
<circle cx="12" cy="12" r="12" fill="#F8C748"/>
<path fill-rule="evenodd" clip-rule="evenodd" d="M12.9724 5.9987C13.017 5.89156 13.1023 5.80652 13.2095 5.76226C13.3168 5.71801 13.4372 5.71819 13.5444 5.76274C13.6515 5.8073 13.7365 5.89259 13.7808 5.99985C13.825 6.10712 13.8249 6.22756 13.7803 6.3347L13.1737 7.79303C13.1291 7.90017 13.0438 7.98522 12.9365 8.02947C12.8293 8.07372 12.7088 8.07355 12.6017 8.02899C12.4946 7.98444 12.4095 7.89914 12.3653 7.79188C12.321 7.68462 12.3212 7.56417 12.3657 7.45703L12.9724 5.9987ZM15.0998 5.98995C15.1225 5.93666 15.1556 5.88841 15.1971 5.848C15.2386 5.80759 15.2878 5.77583 15.3416 5.75456C15.3955 5.73329 15.4531 5.72293 15.511 5.72409C15.5689 5.72524 15.6261 5.73789 15.679 5.7613C15.732 5.7847 15.7799 5.8184 15.8197 5.86044C15.8596 5.90247 15.8907 5.952 15.9113 6.00616C15.9318 6.06032 15.9415 6.11802 15.9395 6.17592C15.9376 6.23382 15.9242 6.29077 15.9002 6.34345L13.8964 10.8818C14.6515 11.2967 15.2497 11.9479 15.5992 12.7355C15.9487 13.5231 16.0302 14.4036 15.8312 15.2419C15.6322 16.0803 15.1637 16.8302 14.4976 17.3767C13.8314 17.9232 13.0044 18.2361 12.1434 18.2675C11.2823 18.2988 10.4347 18.0469 9.73061 17.5502C9.0265 17.0536 8.50473 16.3397 8.24532 15.518C7.98591 14.6964 8.00318 13.8123 8.29447 13.0014C8.58577 12.1905 9.13502 11.4975 9.85799 11.0288L7.52465 6.36212C7.49846 6.31066 7.48271 6.25453 7.47832 6.19695C7.47393 6.13938 7.48097 6.08151 7.49905 6.02667C7.51713 5.97184 7.54588 5.92112 7.58365 5.87745C7.62143 5.83378 7.66747 5.79802 7.71913 5.77223C7.77079 5.74644 7.82704 5.73113 7.88465 5.72718C7.94225 5.72323 8.00007 5.73073 8.05476 5.74923C8.10945 5.76774 8.15994 5.79688 8.20332 5.83499C8.2467 5.87311 8.2821 5.91943 8.30749 5.97128L10.6408 10.6368C10.9924 10.5074 11.3607 10.4292 11.7346 10.4046L9.75999 6.3592C9.70909 6.25493 9.7017 6.1347 9.73944 6.02498C9.77718 5.91525 9.85696 5.82502 9.96124 5.77412C10.0655 5.72322 10.1857 5.71583 10.2955 5.75357C10.4052 5.79131 10.4954 5.87109 10.5463 5.97537L12.7367 10.4653C12.8557 10.4882 12.9724 10.516 13.0867 10.5487L15.0998 5.98995ZM12.0292 12.525C12.0942 12.4763 12.1714 12.4466 12.2524 12.4393C12.3333 12.432 12.4146 12.4474 12.4873 12.4837C12.56 12.5201 12.6211 12.5759 12.6638 12.645C12.7065 12.7141 12.7292 12.7938 12.7292 12.875V15.7917C12.7292 15.9077 12.6831 16.019 12.601 16.1011C12.519 16.1831 12.4077 16.2292 12.2917 16.2292C12.1756 16.2292 12.0643 16.1831 11.9823 16.1011C11.9002 16.019 11.8542 15.9077 11.8542 15.7917V13.75L11.3875 14.1C11.2947 14.1697 11.178 14.1995 11.0631 14.1831C10.9482 14.1667 10.8446 14.1054 10.775 14.0125C10.7054 13.9197 10.6755 13.803 10.6919 13.6882C10.7083 13.5733 10.7697 13.4697 10.8625 13.4L12.0292 12.525Z" fill="#323232"/>
</svg>
