<svg width="14" height="14" viewBox="0 0 14 14" fill="none" xmlns="http://www.w3.org/2000/svg">
<path d="M2.625 9.1875V8.75H1.75V9.1875C1.75 9.99973 2.07266 10.7787 2.64699 11.353C3.22132 11.9273 4.00027 12.25 4.8125 12.25H6.125V11.375H4.8125C4.23234 11.375 3.67594 11.1445 3.2657 10.7343C2.85547 10.3241 2.625 9.76766 2.625 9.1875ZM10.5 4.8125V5.25H11.375V4.8125C11.375 4.00028 11.0523 3.22132 10.478 2.64699C9.90368 2.07266 9.12473 1.75 8.3125 1.75H7V2.625H8.3125C8.59977 2.625 8.88422 2.68158 9.14962 2.79151C9.41502 2.90145 9.65617 3.06258 9.8593 3.2657C10.0624 3.46883 10.2236 3.70998 10.3335 3.97538C10.4434 4.24078 10.5 4.52523 10.5 4.8125ZM4.8125 4.8125H2.1875C1.8394 4.8125 1.50556 4.95078 1.25942 5.19692C1.01328 5.44306 0.875 5.7769 0.875 6.125V7H1.75V6.125C1.75 6.00897 1.79609 5.89769 1.87814 5.81564C1.96019 5.73359 2.07147 5.6875 2.1875 5.6875H4.8125C4.92853 5.6875 5.03981 5.73359 5.12186 5.81564C5.20391 5.89769 5.25 6.00897 5.25 6.125V7H6.125V6.125C6.125 5.7769 5.98672 5.44306 5.74058 5.19692C5.49444 4.95078 5.1606 4.8125 4.8125 4.8125ZM3.5 4.375C3.84612 4.375 4.18446 4.27237 4.47225 4.08007C4.76003 3.88778 4.98434 3.61447 5.11679 3.2947C5.24924 2.97493 5.2839 2.62306 5.21637 2.28359C5.14885 1.94413 4.98218 1.63231 4.73744 1.38756C4.4927 1.14282 4.18087 0.976151 3.84141 0.908627C3.50194 0.841102 3.15007 0.875758 2.8303 1.00821C2.51053 1.14066 2.23722 1.36497 2.04493 1.65275C1.85264 1.94054 1.75 2.27888 1.75 2.625C1.75 3.08913 1.93437 3.53425 2.26256 3.86244C2.59075 4.19063 3.03587 4.375 3.5 4.375ZM3.5 1.75C3.67306 1.75 3.84223 1.80132 3.98612 1.89746C4.13002 1.99361 4.24217 2.13027 4.30839 2.29015C4.37462 2.45004 4.39195 2.62597 4.35819 2.7957C4.32443 2.96544 4.24109 3.12135 4.11872 3.24372C3.99635 3.36609 3.84044 3.44943 3.6707 3.48319C3.50097 3.51695 3.32504 3.49962 3.16515 3.4334C3.00527 3.36717 2.86861 3.25502 2.77246 3.11112C2.67632 2.96723 2.625 2.79806 2.625 2.625C2.625 2.39294 2.71719 2.17038 2.88128 2.00628C3.04538 1.84219 3.26794 1.75 3.5 1.75ZM11.8125 10.9375H9.1875C8.8394 10.9375 8.50556 11.0758 8.25942 11.3219C8.01328 11.5681 7.875 11.9019 7.875 12.25V13.125H8.75V12.25C8.75 12.134 8.79609 12.0227 8.87814 11.9406C8.96019 11.8586 9.07147 11.8125 9.1875 11.8125H11.8125C11.9285 11.8125 12.0398 11.8586 12.1219 11.9406C12.2039 12.0227 12.25 12.134 12.25 12.25V13.125H13.125V12.25C13.125 11.9019 12.9867 11.5681 12.7406 11.3219C12.4944 11.0758 12.1606 10.9375 11.8125 10.9375ZM8.75 8.75C8.75 9.09612 8.85264 9.43446 9.04493 9.72225C9.23722 10.01 9.51053 10.2343 9.8303 10.3668C10.1501 10.4992 10.5019 10.5339 10.8414 10.4664C11.1809 10.3989 11.4927 10.2322 11.7374 9.98744C11.9822 9.7427 12.1489 9.43088 12.2164 9.09141C12.2839 8.75194 12.2492 8.40008 12.1168 8.08031C11.9843 7.76053 11.76 7.48722 11.4722 7.29493C11.1845 7.10264 10.8461 7 10.5 7C10.0359 7 9.59075 7.18438 9.26256 7.51256C8.93437 7.84075 8.75 8.28587 8.75 8.75ZM11.375 8.75C11.375 8.92306 11.3237 9.09223 11.2275 9.23612C11.1314 9.38002 10.9947 9.49217 10.8348 9.5584C10.675 9.62462 10.499 9.64195 10.3293 9.60819C10.1596 9.57443 10.0037 9.49109 9.88128 9.36872C9.75891 9.24635 9.67558 9.09044 9.64181 8.9207C9.60805 8.75097 9.62538 8.57504 9.69161 8.41515C9.75783 8.25527 9.86998 8.11861 10.0139 8.02247C10.1578 7.92632 10.3269 7.875 10.5 7.875C10.7321 7.875 10.9546 7.96719 11.1187 8.13128C11.2828 8.29538 11.375 8.51794 11.375 8.75Z" fill="#323232"/>
</svg>
