<svg width="10" height="10" viewBox="0 0 10 10" fill="none" xmlns="http://www.w3.org/2000/svg">
<g clip-path="url(#clip0_726_256)">
<path d="M4.3701 2.55371L3.01991 0.303516C2.96439 0.210953 2.88584 0.134347 2.79192 0.0811568C2.698 0.027967 2.59191 7.05566e-06 2.48397 0L0.313072 0C0.0601421 0 -0.0879048 0.28457 0.0570171 0.491797L2.23026 3.59648C2.81073 3.0541 3.54901 2.68184 4.3701 2.55371ZM9.6869 0H7.516C7.29647 0 7.09295 0.115234 6.98006 0.303516L5.62987 2.55371C6.45096 2.68184 7.18924 3.0541 7.76971 3.59629L9.94295 0.491797C10.0879 0.28457 9.93983 0 9.6869 0ZM4.99999 3.125C3.10155 3.125 1.56249 4.66406 1.56249 6.5625C1.56249 8.46094 3.10155 10 4.99999 10C6.89842 10 8.43749 8.46094 8.43749 6.5625C8.43749 4.66406 6.89842 3.125 4.99999 3.125ZM6.80702 6.19648L6.0662 6.91836L6.24139 7.93828C6.27264 8.12109 6.08006 8.26074 5.9162 8.17441L4.99999 7.69297L4.08397 8.17441C3.91991 8.26133 3.72752 8.1209 3.75877 7.93828L3.93397 6.91836L3.19315 6.19648C3.05995 6.0668 3.13358 5.84043 3.31717 5.81387L4.3412 5.66465L4.79881 4.73652C4.84002 4.65293 4.91971 4.61172 4.9996 4.61172C5.07987 4.61172 5.16014 4.65352 5.20135 4.73652L5.65897 5.66465L6.68299 5.81387C6.86659 5.84043 6.94022 6.0668 6.80702 6.19648Z" fill="#323232"/>
</g>
<defs>
<clipPath id="clip0_726_256">
<rect width="10" height="10" fill="white"/>
</clipPath>
</defs>
</svg>
