<svg width="14" height="14" viewBox="0 0 14 14" fill="none" xmlns="http://www.w3.org/2000/svg">
<g clip-path="url(#clip0_81_859)">
<path d="M3.69186 4.84044C3.83233 4.84044 3.96673 4.86051 4.09506 4.90064C4.57889 4.36004 5.11411 3.86773 5.69316 3.43064C5.63343 3.1814 5.64507 2.92038 5.72676 2.67744C5.07291 2.20879 4.36531 1.82009 3.61906 1.51964C2.9162 1.95537 2.3028 2.52102 1.81166 3.18634C2.17496 3.83034 2.60686 4.43024 3.09826 4.97624C3.27746 4.88944 3.47836 4.84044 3.69186 4.84044ZM2.32126 6.21034C2.32126 6.01784 2.36186 5.83444 2.43256 5.66924C1.99222 5.18482 1.5952 4.66272 1.24606 4.10894C0.795069 5.00617 0.560147 5.99644 0.560062 7.00064C0.558856 8.16025 0.872141 9.29848 1.46656 10.2941C1.66972 9.15547 2.05249 8.0563 2.60056 7.03774C2.41937 6.79997 2.32125 6.50928 2.32126 6.21034ZM7.02526 1.74224C7.38716 1.74224 7.71476 1.88294 7.96046 2.11254C8.6834 1.80062 9.43795 1.5678 10.211 1.41814C9.23482 0.854527 8.12723 0.558493 7.00006 0.559942C6.2264 0.559965 5.45908 0.699392 4.73486 0.971542C5.29196 1.24758 5.8251 1.56952 6.32876 1.93404C6.53316 1.81224 6.77046 1.74224 7.02526 1.74224ZM9.07346 8.19554C9.15692 8.01808 9.27859 7.86127 9.42976 7.73634C9.02956 6.50524 8.39436 5.36346 7.55936 4.37424C7.34341 4.46533 7.10772 4.49959 6.87477 4.47373C6.64182 4.44787 6.41938 4.36277 6.22866 4.22654C5.73209 4.60351 5.27183 5.02605 4.85386 5.48864C4.95913 5.65531 5.02665 5.843 5.05169 6.03854C5.07672 6.23408 5.05865 6.43273 4.99876 6.62054C6.22394 7.44016 7.61554 7.97806 9.07346 8.19554ZM10.8508 10.0456C10.9014 10.7649 10.8824 11.4874 10.7941 12.203C11.9003 11.3971 12.7209 10.2596 13.137 8.95574C12.6348 9.07738 12.1246 9.16277 11.6103 9.21124C11.5501 9.39622 11.4512 9.56627 11.3203 9.71013C11.1893 9.85399 11.0293 9.96835 10.8508 10.0456ZM8.75286 9.11674C7.19519 8.85824 5.71211 8.265 4.40586 7.37794C4.10829 7.56118 3.75178 7.62332 3.40976 7.55154C2.78048 8.74211 2.39968 10.0481 2.29046 11.3903C2.90752 12.054 3.6577 12.58 4.49196 12.9338C5.54938 11.3068 7.01975 9.98955 8.75286 9.11674ZM11.3233 2.22664C10.3126 2.32553 9.32295 2.57761 8.38816 2.97424C8.41361 3.2283 8.36729 3.4844 8.25446 3.71344C9.18145 4.80114 9.8874 6.05919 10.3328 7.41714C10.5981 7.42184 10.8563 7.50335 11.0762 7.65182C11.2961 7.80029 11.4682 8.00934 11.5718 8.25364C12.192 8.19064 12.7954 8.07164 13.3764 7.90084C13.5248 6.85924 13.4152 5.79712 13.0573 4.80777C12.6993 3.81841 12.1038 2.93209 11.3233 2.22664ZM9.44236 9.84824C7.82816 10.6044 6.44515 11.7779 5.43626 13.2474C5.94768 13.3754 6.47288 13.44 7.00006 13.4399C7.93886 13.44 8.86632 13.2347 9.71746 12.8386C9.85046 12.189 9.92046 11.5177 9.92046 10.8303C9.92 10.5816 9.90996 10.3354 9.89036 10.0918C9.72671 10.0403 9.57458 9.95758 9.44236 9.84824Z" fill="#323232"/>
</g>
<defs>
<clipPath id="clip0_81_859">
<rect width="14" height="14" fill="white"/>
</clipPath>
</defs>
</svg>
