<svg width="14" height="14" viewBox="0 0 14 14" fill="none" xmlns="http://www.w3.org/2000/svg">
<path fill-rule="evenodd" clip-rule="evenodd" d="M7.9724 0.9987C8.01696 0.891564 8.10225 0.806515 8.20951 0.762264C8.31678 0.718013 8.43723 0.718185 8.54436 0.762742C8.6515 0.807298 8.73655 0.892589 8.7808 0.999852C8.82505 1.10712 8.82488 1.22756 8.78032 1.3347L8.17365 2.79303C8.1291 2.90017 8.04381 2.98522 7.93654 3.02947C7.82928 3.07372 7.70883 3.07355 7.6017 3.02899C7.49456 2.98444 7.40951 2.89914 7.36526 2.79188C7.32101 2.68462 7.32118 2.56417 7.36574 2.45703L7.9724 0.9987ZM10.0998 0.98995C10.1225 0.936657 10.1556 0.888407 10.1971 0.847999C10.2386 0.807591 10.2878 0.775829 10.3416 0.754558C10.3955 0.733287 10.4531 0.722929 10.511 0.724086C10.5689 0.725243 10.6261 0.737892 10.679 0.761299C10.732 0.784705 10.7799 0.818403 10.8197 0.860437C10.8596 0.902471 10.8907 0.952003 10.9113 1.00616C10.9318 1.06032 10.9415 1.11802 10.9395 1.17592C10.9376 1.23382 10.9242 1.29077 10.9002 1.34345L8.8964 5.88178C9.65154 6.29674 10.2497 6.94794 10.5992 7.73552C10.9487 8.5231 11.0302 9.40357 10.8312 10.2419C10.6322 11.0803 10.1637 11.8302 9.49758 12.3767C8.83144 12.9232 8.00443 13.2361 7.14336 13.2675C6.2823 13.2988 5.43472 13.0469 4.73061 12.5502C4.0265 12.0536 3.50473 11.3397 3.24532 10.518C2.98591 9.69638 3.00318 8.81232 3.29447 8.00141C3.58577 7.19051 4.13502 6.49754 4.85799 6.02878L2.52465 1.36212C2.49846 1.31066 2.48271 1.25453 2.47832 1.19695C2.47393 1.13938 2.48097 1.08151 2.49905 1.02667C2.51713 0.971837 2.54588 0.921122 2.58365 0.877452C2.62143 0.833781 2.66747 0.798019 2.71913 0.772228C2.77079 0.746437 2.82704 0.731127 2.88465 0.72718C2.94225 0.723233 3.00007 0.730728 3.05476 0.749232C3.10945 0.767736 3.15994 0.796884 3.20332 0.834995C3.2467 0.873105 3.2821 0.919425 3.30749 0.971283L5.64082 5.63678C5.99239 5.50737 6.36074 5.42918 6.73457 5.40462L4.75999 1.3592C4.70909 1.25493 4.7017 1.1347 4.73944 1.02498C4.77718 0.915254 4.85696 0.825016 4.96124 0.774117C5.06551 0.723217 5.18573 0.715825 5.29546 0.753567C5.40518 0.791309 5.49542 0.871092 5.54632 0.975367L7.73674 5.46528C7.85574 5.48823 7.9724 5.51603 8.08674 5.5487L10.0998 0.98995ZM7.02915 7.52503C7.09415 7.47628 7.17144 7.4466 7.25236 7.4393C7.33328 7.432 7.41464 7.44739 7.48731 7.48372C7.55998 7.52006 7.6211 7.57591 7.66381 7.64503C7.70653 7.71414 7.72915 7.79378 7.72915 7.87503V10.7917C7.72915 10.9077 7.68306 11.019 7.60101 11.1011C7.51897 11.1831 7.40769 11.2292 7.29165 11.2292C7.17562 11.2292 7.06434 11.1831 6.98229 11.1011C6.90025 11.019 6.85415 10.9077 6.85415 10.7917V8.75003L6.38749 9.10003C6.29466 9.16965 6.17798 9.19954 6.06311 9.18314C5.94825 9.16673 5.84461 9.10536 5.77499 9.01253C5.70537 8.91971 5.67547 8.80303 5.69188 8.68816C5.70829 8.5733 5.76966 8.46965 5.86249 8.40003L7.02915 7.52503Z" fill="#323232"/>
</svg>
