<svg width="14" height="14" viewBox="0 0 14 14" fill="none" xmlns="http://www.w3.org/2000/svg">
<g clip-path="url(#clip0_81_848)">
<path d="M12.3957 3.20829C12.2796 3.20829 12.1684 3.1622 12.0863 3.08015C12.0043 2.9981 11.9582 2.88682 11.9582 2.77079C11.9582 2.65476 12.0043 2.54348 12.0863 2.46143C12.1684 2.37939 12.2796 2.33329 12.3957 2.33329C12.5117 2.33329 12.623 2.37939 12.705 2.46143C12.7871 2.54348 12.8332 2.65476 12.8332 2.77079C12.8332 2.88682 12.7871 2.9981 12.705 3.08015C12.623 3.1622 12.5117 3.20829 12.3957 3.20829ZM12.3957 3.20829V5.39579C12.3957 5.80296 12.3957 6.00654 12.3455 6.17163C12.2899 6.35528 12.1898 6.52238 12.0542 6.65811C11.9186 6.79385 11.7515 6.89404 11.5679 6.94979C11.4023 6.99996 11.1987 6.99996 10.7915 6.99996M1.604 10.7916C1.72004 10.7916 1.83132 10.8377 1.91336 10.9198C1.99541 11.0018 2.0415 11.1131 2.0415 11.2291C2.0415 11.3452 1.99541 11.4564 1.91336 11.5385C1.83132 11.6205 1.72004 11.6666 1.604 11.6666C1.48797 11.6666 1.37669 11.6205 1.29464 11.5385C1.2126 11.4564 1.1665 11.3452 1.1665 11.2291C1.1665 11.1131 1.2126 11.0018 1.29464 10.9198C1.37669 10.8377 1.48797 10.7916 1.604 10.7916ZM1.604 10.7916V8.60413C1.604 8.19696 1.604 7.99338 1.65417 7.82829C1.70979 7.64464 1.80985 7.47754 1.94549 7.34181C2.08112 7.20607 2.24814 7.10588 2.43175 7.05013C2.59742 6.99996 2.801 6.99996 3.20817 6.99996M3.20817 1.60413C3.20817 1.72016 3.16208 1.83144 3.08003 1.91349C2.99798 1.99553 2.8867 2.04163 2.77067 2.04163C2.65464 2.04163 2.54336 1.99553 2.46131 1.91349C2.37926 1.83144 2.33317 1.72016 2.33317 1.60413C2.33317 1.48809 2.37926 1.37681 2.46131 1.29477C2.54336 1.21272 2.65464 1.16663 2.77067 1.16663C2.8867 1.16663 2.99798 1.21272 3.08003 1.29477C3.16208 1.37681 3.20817 1.48809 3.20817 1.60413ZM3.20817 1.60413H5.39567C5.80284 1.60413 6.00642 1.60413 6.1715 1.65429C6.35516 1.70991 6.52225 1.80997 6.65799 1.94561C6.79373 2.08124 6.89391 2.24827 6.94967 2.43188C6.99984 2.59754 6.99984 2.80113 6.99984 3.20829M10.7915 12.3958C10.7915 12.2798 10.8376 12.1685 10.9196 12.0864C11.0017 12.0044 11.113 11.9583 11.229 11.9583C11.345 11.9583 11.4563 12.0044 11.5384 12.0864C11.6204 12.1685 11.6665 12.2798 11.6665 12.3958C11.6665 12.5118 11.6204 12.6231 11.5384 12.7052C11.4563 12.7872 11.345 12.8333 11.229 12.8333C11.113 12.8333 11.0017 12.7872 10.9196 12.7052C10.8376 12.6231 10.7915 12.5118 10.7915 12.3958ZM10.7915 12.3958H8.604C8.19684 12.3958 7.99325 12.3958 7.82817 12.3456C7.64452 12.29 7.47742 12.1899 7.34168 12.0543C7.20595 11.9187 7.10576 11.7517 7.05 11.568C6.99984 11.4024 6.99984 11.1988 6.99984 10.7916" stroke="#323232" stroke-width="1.5" stroke-linecap="round" stroke-linejoin="round"/>
<path d="M3.23682 6.97135C3.23682 5.18402 3.23682 4.29035 3.79215 3.73502C4.34748 3.17969 5.24115 3.17969 7.02848 3.17969C8.81582 3.17969 9.70948 3.17969 10.2648 3.73502C10.8202 4.29035 10.8202 5.18402 10.8202 6.97135C10.8202 8.75869 10.8202 9.65235 10.2648 10.2077C9.70948 10.763 8.81582 10.763 7.02848 10.763C5.24115 10.763 4.34748 10.763 3.79215 10.2077C3.23682 9.65235 3.23682 8.75869 3.23682 6.97135Z" stroke="#323232" stroke-width="1.5" stroke-linecap="round" stroke-linejoin="round"/>
<path d="M7.29074 8.45827L6.43907 5.82102C6.40953 5.7378 6.35452 5.666 6.28184 5.61584C6.20916 5.56568 6.12252 5.5397 6.03424 5.5416C5.94605 5.53983 5.85954 5.56586 5.78698 5.61602C5.71442 5.66617 5.65949 5.73789 5.62999 5.82102L4.77832 8.45827M8.74907 5.5416V8.45827M5.09157 7.58327H6.9769" stroke="#323232" stroke-width="1.5" stroke-linecap="round" stroke-linejoin="round"/>
</g>
<defs>
<clipPath id="clip0_81_848">
<rect width="14" height="14" fill="white"/>
</clipPath>
</defs>
</svg>
